<?xml version="1.0" encoding="UTF-8"?>
<!DOCTYPE svg PUBLIC "-//W3C//DTD SVG 1.1//EN" "http://www.w3.org/Graphics/SVG/1.1/DTD/svg11.dtd">
<svg xmlns="http://www.w3.org/2000/svg" version="1.1" width="32px" height="32px" style="shape-rendering:geometricPrecision; text-rendering:geometricPrecision; image-rendering:optimizeQuality; fill-rule:evenodd; clip-rule:evenodd" xmlns:xlink="http://www.w3.org/1999/xlink">
<g><path style="opacity:0.804" fill="#000000" d="M 12.5,0.5 C 20.1485,0.314367 23.3152,3.98103 22,11.5C 21.0267,13.64 19.5267,15.3067 17.5,16.5C 19.4886,17.6153 21.322,17.282 23,15.5C 24.5971,16.8847 26.4305,17.5514 28.5,17.5C 28.67,18.8221 28.3366,19.9887 27.5,21C 28.448,21.4828 29.448,21.6495 30.5,21.5C 30.5,22.5 30.5,23.5 30.5,24.5C 29.448,24.3505 28.448,24.5172 27.5,25C 28.3366,26.0113 28.67,27.1779 28.5,28.5C 27.1779,28.67 26.0113,28.3366 25,27.5C 24.5172,28.448 24.3505,29.448 24.5,30.5C 23.5,30.5 22.5,30.5 21.5,30.5C 21.6495,29.448 21.4828,28.448 21,27.5C 14.3333,28.8333 7.66667,28.8333 1,27.5C 0.293701,25.0288 0.627034,22.6954 2,20.5C 5.23665,18.4199 8.73665,16.9199 12.5,16C 7.7762,13.5647 6.2762,9.73137 8,4.5C 9.39683,2.92975 10.8968,1.59641 12.5,0.5 Z M 21.5,20.5 C 23.9118,20.6941 24.9118,22.0274 24.5,24.5C 21.0464,24.7332 20.0464,23.3999 21.5,20.5 Z"/></g>
</svg>
