<?xml version="1.0" encoding="UTF-8"?>
<!DOCTYPE svg PUBLIC "-//W3C//DTD SVG 1.1//EN" "http://www.w3.org/Graphics/SVG/1.1/DTD/svg11.dtd">
<svg xmlns="http://www.w3.org/2000/svg" version="1.1" width="512px" height="512px" style="shape-rendering:geometricPrecision; text-rendering:geometricPrecision; image-rendering:optimizeQuality; fill-rule:evenodd; clip-rule:evenodd" xmlns:xlink="http://www.w3.org/1999/xlink">
<g><path style="opacity:0.949" fill="#000000" d="M 246.5,12.5 C 298.157,11.3998 335.657,33.7331 359,79.5C 376.202,123.421 370.202,163.754 341,200.5C 303.804,238.272 260.304,248.106 210.5,230C 159.666,204.511 137.5,163.344 144,106.5C 153.048,62.7854 178.548,33.2854 220.5,18C 229.182,15.5652 237.848,13.7319 246.5,12.5 Z M 247.5,35.5 C 290.081,34.6959 320.581,53.3626 339,91.5C 353.473,134.456 343.306,170.29 308.5,199C 273.153,222.242 237.819,222.242 202.5,199C 167.692,170.281 157.525,134.448 172,91.5C 187.124,59.1995 212.29,40.5328 247.5,35.5 Z"/></g>
<g><path style="opacity:0.949" fill="#000000" d="M 236.5,246.5 C 307.644,242.258 367.811,265.591 417,316.5C 442.592,347.212 447.925,381.212 433,418.5C 424.327,436.84 411.161,451.006 393.5,461C 318.534,502.689 240.534,509.355 159.5,481C 138.171,473.173 118.504,462.506 100.5,449C 68.8408,417.035 61.6741,380.202 79,338.5C 87.895,322.263 99.7284,308.429 114.5,297C 150.214,268.313 190.88,251.48 236.5,246.5 Z M 238.5,269.5 C 302.671,266.046 356.838,287.379 401,333.5C 423.933,363.575 424.267,393.909 402,424.5C 396.666,430.738 390.499,435.904 383.5,440C 301.231,485.82 218.231,487.153 134.5,444C 96.8462,422.712 85.0128,391.545 99,350.5C 106.941,336.218 117.441,324.052 130.5,314C 162.253,288.914 198.253,274.081 238.5,269.5 Z"/></g>
</svg>
