<?xml version="1.0" encoding="UTF-8"?>
<!DOCTYPE svg PUBLIC "-//W3C//DTD SVG 1.1//EN" "http://www.w3.org/Graphics/SVG/1.1/DTD/svg11.dtd">
<svg xmlns="http://www.w3.org/2000/svg" version="1.1" width="512px" height="512px" style="shape-rendering:geometricPrecision; text-rendering:geometricPrecision; image-rendering:optimizeQuality; fill-rule:evenodd; clip-rule:evenodd" xmlns:xlink="http://www.w3.org/1999/xlink">
<g><path style="opacity:0.95" fill="#000000" d="M 286.5,51.5 C 303.762,49.8979 319.429,54.0646 333.5,64C 384.306,113.806 434.806,163.972 485,214.5C 493.229,223.29 498.562,233.623 501,245.5C 502.625,301.813 502.958,358.146 502,414.5C 501.171,434.984 491.337,449.151 472.5,457C 469.833,457.667 467.167,458.333 464.5,459C 430.167,459.667 395.833,459.667 361.5,459C 342.193,455.026 330.026,443.526 325,424.5C 323.59,404.87 323.09,385.203 323.5,365.5C 304.833,365.5 286.167,365.5 267.5,365.5C 267.667,383.836 267.5,402.17 267,420.5C 262.949,441.552 250.449,454.385 229.5,459C 195.167,459.667 160.833,459.667 126.5,459C 107,454.167 94.8333,442 90,422.5C 89.3333,364.167 89.3333,305.833 90,247.5C 91.6788,237.118 95.6788,227.784 102,219.5C 153.5,168 205,116.5 256.5,65C 265.468,58.0124 275.468,53.5124 286.5,51.5 Z M 288.5,74.5 C 301.404,73.0803 312.738,76.5803 322.5,85C 371.667,134.167 420.833,183.333 470,232.5C 475.205,238.913 478.205,246.247 479,254.5C 479.667,308.167 479.667,361.833 479,415.5C 477.924,424.829 473.09,431.329 464.5,435C 447.397,436.146 430.23,436.646 413,436.5C 396.833,436.333 380.667,436.167 364.5,436C 354.471,433.302 348.637,426.802 347,416.5C 346.964,396.436 346.298,376.436 345,356.5C 341.37,348.538 335.203,344.038 326.5,343C 305.833,342.333 285.167,342.333 264.5,343C 254.232,344.6 247.732,350.433 245,360.5C 244.954,381.218 244.287,401.884 243,422.5C 240.167,428 236,432.167 230.5,435C 196.894,436.646 163.227,436.979 129.5,436C 122.481,433.649 117.314,429.149 114,422.5C 112.345,364.891 112.012,307.225 113,249.5C 113.739,245.615 115.073,241.948 117,238.5C 168.472,186.027 220.306,133.861 272.5,82C 277.542,78.6426 282.876,76.1426 288.5,74.5 Z"/></g>
</svg>
