<?xml version="1.0" encoding="UTF-8"?>
<!DOCTYPE svg PUBLIC "-//W3C//DTD SVG 1.1//EN" "http://www.w3.org/Graphics/SVG/1.1/DTD/svg11.dtd">
<svg xmlns="http://www.w3.org/2000/svg" version="1.1" width="512px" height="512px" style="shape-rendering:geometricPrecision; text-rendering:geometricPrecision; image-rendering:optimizeQuality; fill-rule:evenodd; clip-rule:evenodd" xmlns:xlink="http://www.w3.org/1999/xlink">
<g><path style="opacity:0.982" fill="#000000" d="M 511.5,30.5 C 511.5,158.833 511.5,287.167 511.5,415.5C 501.116,463.377 471.449,489.544 422.5,494C 303.5,494.667 184.5,494.667 65.5,494C 29.3996,486.731 7.39962,465.231 -0.5,429.5C -0.5,383.833 -0.5,338.167 -0.5,292.5C 6.9869,257.513 28.3202,236.347 63.5,229C 79.4715,227.699 95.4715,227.199 111.5,227.5C 111.333,162.166 111.5,96.8325 112,31.5C 113.675,25.1587 117.508,20.6587 123.5,18C 247.777,16.3389 372.111,16.0056 496.5,17C 503.617,19.2903 508.617,23.7903 511.5,30.5 Z M 152.5,57.5 C 258.5,57.5 364.5,57.5 470.5,57.5C 470.667,174.5 470.5,291.5 470,408.5C 465.62,432.546 451.454,447.046 427.5,452C 333.167,452.667 238.833,452.667 144.5,452C 148.193,444.922 150.693,437.422 152,429.5C 152.5,305.5 152.667,181.5 152.5,57.5 Z M 71.5,269.5 C 84.8333,269.5 98.1667,269.5 111.5,269.5C 111.973,321.866 111.473,374.199 110,426.5C 101.135,449.516 84.9683,457.35 61.5,450C 50.0299,443.859 43.1966,434.359 41,421.5C 40.0336,379.467 40.3669,337.467 42,295.5C 47.0672,281.257 56.9005,272.591 71.5,269.5 Z"/></g>
<g><path style="opacity:0.98" fill="#000000" d="M 218.5,143.5 C 264.168,143.333 309.835,143.5 355.5,144C 367.067,147.638 372.233,155.471 371,167.5C 369.512,175.998 364.678,181.498 356.5,184C 310.167,184.667 263.833,184.667 217.5,184C 207.921,180.867 202.921,174.2 202.5,164C 203.572,153.769 208.906,146.936 218.5,143.5 Z"/></g>
<g><path style="opacity:0.963" fill="#000000" d="M 218.5,241.5 C 280.501,241.333 342.501,241.5 404.5,242C 414.27,245.104 419.603,251.771 420.5,262C 419.251,274.166 412.585,281.166 400.5,283C 341.167,283.667 281.833,283.667 222.5,283C 210.027,281.527 203.361,274.527 202.5,262C 203.572,251.769 208.906,244.936 218.5,241.5 Z"/></g>
<g><path style="opacity:0.961" fill="#000000" d="M 218.5,333.5 C 264.168,333.333 309.835,333.5 355.5,334C 371.365,340.939 375.198,352.106 367,367.5C 362.834,371.999 357.667,374.499 351.5,375C 308.5,375.667 265.5,375.667 222.5,375C 210.027,373.527 203.361,366.527 202.5,354C 203.572,343.769 208.906,336.936 218.5,333.5 Z"/></g>
</svg>
