<?xml version="1.0" encoding="UTF-8"?>
<!DOCTYPE svg PUBLIC "-//W3C//DTD SVG 1.1//EN" "http://www.w3.org/Graphics/SVG/1.1/DTD/svg11.dtd">
<svg xmlns="http://www.w3.org/2000/svg" version="1.1" width="512px" height="512px" style="shape-rendering:geometricPrecision; text-rendering:geometricPrecision; image-rendering:optimizeQuality; fill-rule:evenodd; clip-rule:evenodd" xmlns:xlink="http://www.w3.org/1999/xlink">
<g><path style="opacity:0.973" fill="#000000" d="M 89.5,-0.5 C 200.167,-0.5 310.833,-0.5 421.5,-0.5C 425.811,1.6467 428.978,4.98004 431,9.5C 431.5,18.1603 431.666,26.8269 431.5,35.5C 453.503,35.3334 475.503,35.5 497.5,36C 503.777,36.9594 508.444,40.126 511.5,45.5C 511.5,56.5 511.5,67.5 511.5,78.5C 508.173,117.476 499.007,155.143 484,191.5C 467.269,229.881 442.103,261.381 408.5,286C 388.677,298.719 367.01,306.052 343.5,308C 333.879,317.961 323.379,326.795 312,334.5C 311.5,356.497 311.333,378.497 311.5,400.5C 370.342,395.676 397.009,422.676 391.5,481.5C 405.056,482.923 409.889,490.257 406,503.5C 403.926,507.077 401.093,509.744 397.5,511.5C 302.833,511.5 208.167,511.5 113.5,511.5C 103.697,505.921 101.197,497.921 106,487.5C 109.477,483.178 113.977,481.178 119.5,481.5C 113.991,422.676 140.658,395.676 199.5,400.5C 199.667,378.497 199.5,356.497 199,334.5C 187.621,326.795 177.121,317.961 167.5,308C 130.315,303.823 98.8149,288.323 73,261.5C 39.084,223.333 17.084,179 7,128.5C 3.78087,111.792 1.28087,95.1255 -0.5,78.5C -0.5,67.5 -0.5,56.5 -0.5,45.5C 2.55627,40.126 7.22294,36.9594 13.5,36C 35.4975,35.5 57.4975,35.3334 79.5,35.5C 79.3336,26.8269 79.5002,18.1603 80,9.5C 82.0223,4.98004 85.189,1.6467 89.5,-0.5 Z M 110.5,29.5 C 207.167,29.5 303.833,29.5 400.5,29.5C 399.596,97.1871 386.096,162.187 360,224.5C 346.935,255.875 327.435,282.375 301.5,304C 270.833,326 240.167,326 209.5,304C 183.565,282.375 164.065,255.875 151,224.5C 124.904,162.187 111.404,97.1871 110.5,29.5 Z M 30.5,66.5 C 47.5,66.5 64.5,66.5 81.5,66.5C 86.1224,138.714 105.122,206.381 138.5,269.5C 116.98,259.487 98.8136,245.154 84,226.5C 49.9337,178.802 32.1004,125.469 30.5,66.5 Z M 429.5,66.5 C 446.5,66.5 463.5,66.5 480.5,66.5C 478.9,125.469 461.066,178.802 427,226.5C 412.186,245.154 394.02,259.487 372.5,269.5C 405.878,206.381 424.878,138.714 429.5,66.5 Z M 230.5,348.5 C 238.769,349.919 247.102,350.919 255.5,351.5C 263.898,350.919 272.231,349.919 280.5,348.5C 280.5,365.833 280.5,383.167 280.5,400.5C 263.833,400.5 247.167,400.5 230.5,400.5C 230.5,383.167 230.5,365.833 230.5,348.5 Z M 172.5,431.5 C 229.538,431.02 286.538,431.52 343.5,433C 351.883,436.602 357.383,442.768 360,451.5C 360.5,461.494 360.666,471.494 360.5,481.5C 290.5,481.5 220.5,481.5 150.5,481.5C 150.334,471.494 150.5,461.494 151,451.5C 154.334,440.603 161.501,433.936 172.5,431.5 Z"/></g>
</svg>
