<?xml version="1.0" encoding="UTF-8"?>
<!DOCTYPE svg PUBLIC "-//W3C//DTD SVG 1.1//EN" "http://www.w3.org/Graphics/SVG/1.1/DTD/svg11.dtd">
<svg xmlns="http://www.w3.org/2000/svg" version="1.1" width="512px" height="512px" style="shape-rendering:geometricPrecision; text-rendering:geometricPrecision; image-rendering:optimizeQuality; fill-rule:evenodd; clip-rule:evenodd" xmlns:xlink="http://www.w3.org/1999/xlink">
<g><path style="opacity:0.949" fill="#000000" d="M 327.5,31.5 C 367.962,27.8109 398.128,43.4776 418,78.5C 433.762,116.437 427.595,150.27 399.5,180C 374.913,200.986 346.913,207.32 315.5,199C 282.445,187.614 262.612,164.781 256,130.5C 251.765,85.4499 270.265,53.9499 311.5,36C 316.956,34.4732 322.289,32.9732 327.5,31.5 Z M 331.5,53.5 C 364.986,51.479 388.152,65.8123 401,96.5C 409.241,129.497 399.074,154.997 370.5,173C 336.744,187.104 308.911,179.604 287,150.5C 269.912,116.599 276.079,87.7661 305.5,64C 313.695,59.0604 322.361,55.5604 331.5,53.5 Z"/></g>
<g><path style="opacity:0.945" fill="#000000" d="M 152.5,105.5 C 200.245,105.433 230.578,128.266 243.5,174C 249.664,218.677 232.664,251.011 192.5,271C 151.732,284.769 117.566,275.269 90,242.5C 66.935,205.885 68.2683,170.218 94,135.5C 109.815,118.176 129.315,108.176 152.5,105.5 Z M 158.5,127.5 C 189.936,129.777 210.769,145.777 221,175.5C 227.113,208.435 215.613,232.935 186.5,249C 152.081,261.638 124.581,252.805 104,222.5C 89.9435,192.456 94.7768,165.956 118.5,143C 130.276,133.604 143.609,128.438 158.5,127.5 Z"/></g>
<g><path style="opacity:0.96" fill="#000000" d="M 294.5,223.5 C 332.501,223.333 370.501,223.5 408.5,224C 454.993,233.494 482.16,261.66 490,308.5C 490.667,325.167 490.667,341.833 490,358.5C 487.062,369.769 480.228,377.603 469.5,382C 412.559,383.488 355.559,383.988 298.5,383.5C 298.667,400.17 298.5,416.837 298,433.5C 295,445.166 287.833,452.999 276.5,457C 237.545,458.155 198.545,458.655 159.5,458.5C 121.833,458.333 84.1667,458.167 46.5,458C 33.1104,454.944 24.6104,446.777 21,433.5C 20.3333,416.5 20.3333,399.5 21,382.5C 28.3071,339.192 53.1404,311.692 95.5,300C 100.123,299.042 104.79,298.375 109.5,298C 126.333,297.833 143.167,297.667 160,297.5C 179.528,297.386 199.028,297.886 218.5,299C 253.986,306.564 278.653,327.064 292.5,360.5C 329.827,361.5 367.161,361.833 404.5,361.5C 404.333,339.164 404.5,316.831 405,294.5C 406.572,289.296 410.072,286.963 415.5,287.5C 420.928,286.963 424.428,289.296 426,294.5C 426.5,316.831 426.667,339.164 426.5,361.5C 438.171,361.667 449.838,361.5 461.5,361C 464.756,359.413 466.923,356.913 468,353.5C 468.885,337.464 468.552,321.464 467,305.5C 458.743,271.91 437.577,252.077 403.5,246C 368.833,245.333 334.167,245.333 299.5,246C 284.909,248.131 271.909,253.798 260.5,263C 247.22,264.944 242.387,259.444 246,246.5C 260.064,234.316 276.23,226.65 294.5,223.5 Z M 115.5,319.5 C 148.523,319.084 181.523,319.584 214.5,321C 249.895,329.395 270.395,351.562 276,387.5C 276.667,401.167 276.667,414.833 276,428.5C 274.833,432.333 272.333,434.833 268.5,436C 257.172,436.5 245.838,436.667 234.5,436.5C 234.667,413.831 234.5,391.164 234,368.5C 227,359.167 220,359.167 213,368.5C 212.5,391.164 212.333,413.831 212.5,436.5C 177.167,436.5 141.833,436.5 106.5,436.5C 106.667,413.831 106.5,391.164 106,368.5C 99,359.167 92,359.167 85,368.5C 84.5,391.164 84.3334,413.831 84.5,436.5C 73.1618,436.667 61.8284,436.5 50.5,436C 46.6667,434.833 44.1667,432.333 43,428.5C 42.3333,414.833 42.3333,401.167 43,387.5C 50.3065,346.689 74.4732,324.023 115.5,319.5 Z"/></g>
</svg>
