<?xml version="1.0" encoding="UTF-8"?>
<!DOCTYPE svg PUBLIC "-//W3C//DTD SVG 1.1//EN" "http://www.w3.org/Graphics/SVG/1.1/DTD/svg11.dtd">
<svg xmlns="http://www.w3.org/2000/svg" version="1.1" width="512px" height="512px" style="shape-rendering:geometricPrecision; text-rendering:geometricPrecision; image-rendering:optimizeQuality; fill-rule:evenodd; clip-rule:evenodd" xmlns:xlink="http://www.w3.org/1999/xlink">
<g><path style="opacity:0.954" fill="#000000" d="M 511.5,62.5 C 511.5,69.8333 511.5,77.1667 511.5,84.5C 508.661,96.1738 503.161,106.507 495,115.5C 419.5,191 344,266.5 268.5,342C 266.112,343.861 263.446,345.194 260.5,346C 223.656,356.252 186.822,366.419 150,376.5C 142.167,375.333 137.667,370.833 136.5,363C 146.404,327.222 156.237,291.388 166,255.5C 166.899,251.462 168.566,247.795 171,244.5C 248.194,166.973 325.694,89.8059 403.5,13C 428.018,-3.50609 452.351,-3.17276 476.5,14C 487.822,23.9802 497.655,35.1469 506,47.5C 507.965,52.5712 509.798,57.5712 511.5,62.5 Z M 433.5,27.5 C 441.298,26.7833 448.631,28.2833 455.5,32C 466.079,40.5766 475.245,50.4099 483,61.5C 487.493,74.5302 485.159,86.1969 476,96.5C 471.985,100.682 467.818,104.682 463.5,108.5C 443.5,89.1667 423.833,69.5 404.5,49.5C 412.293,39.4645 421.96,32.1312 433.5,27.5 Z M 384.5,68.5 C 404.632,88.1317 424.632,107.965 444.5,128C 382.667,189.833 320.833,251.667 259,313.5C 239.167,293.667 219.333,273.833 199.5,254C 261.368,192.299 323.035,130.465 384.5,68.5 Z M 186.5,279.5 C 202.146,294.479 217.479,309.812 232.5,325.5C 211.588,332.307 190.588,337.974 169.5,342.5C 175.639,321.611 181.305,300.611 186.5,279.5 Z"/></g>
<g><path style="opacity:0.956" fill="#000000" d="M 428.5,511.5 C 304.5,511.5 180.5,511.5 56.5,511.5C 26.2679,505.935 7.26793,488.269 -0.5,458.5C -0.5,340.167 -0.5,221.833 -0.5,103.5C 6.10406,76.7271 22.7707,59.5604 49.5,52C 92.8008,50.3659 136.134,50.0325 179.5,51C 188.725,54.6234 191.559,61.1234 188,70.5C 185.536,74.2896 182.036,76.4563 177.5,77C 136.833,77.3333 96.1667,77.6667 55.5,78C 39.0238,82.8093 29.1905,93.6426 26,110.5C 25.3333,224.167 25.3333,337.833 26,451.5C 29.1691,468.338 39.0024,479.171 55.5,484C 179.833,484.667 304.167,484.667 428.5,484C 444.324,480.176 454.158,470.342 458,454.5C 458.333,413.5 458.667,372.5 459,331.5C 462.847,321.324 469.681,318.49 479.5,323C 482.106,324.938 483.939,327.438 485,330.5C 485.962,373.862 485.628,417.195 484,460.5C 476.046,489.048 457.546,506.048 428.5,511.5 Z"/></g>
</svg>
