<?xml version="1.0" encoding="UTF-8"?>
<!DOCTYPE svg PUBLIC "-//W3C//DTD SVG 1.1//EN" "http://www.w3.org/Graphics/SVG/1.1/DTD/svg11.dtd">
<svg xmlns="http://www.w3.org/2000/svg" version="1.1" width="512px" height="512px" style="shape-rendering:geometricPrecision; text-rendering:geometricPrecision; image-rendering:optimizeQuality; fill-rule:evenodd; clip-rule:evenodd" xmlns:xlink="http://www.w3.org/1999/xlink">
<g><path style="opacity:0.965" fill="#000000" d="M 250.5,37.5 C 262.251,36.1199 270.418,40.7866 275,51.5C 275.667,75.8333 275.667,100.167 275,124.5C 268.073,138.365 257.573,141.865 243.5,135C 238.029,130.861 235.195,125.361 235,118.5C 234.066,96.1299 234.4,73.7965 236,51.5C 238.749,44.5832 243.582,39.9166 250.5,37.5 Z"/></g>
<g><path style="opacity:0.959" fill="#000000" d="M 14.5,142.5 C 20.4018,141.962 26.0685,142.795 31.5,145C 48.6318,159.797 65.4652,174.963 82,190.5C 87.5416,200.896 86.375,210.396 78.5,219C 70.3791,224.495 62.0457,224.828 53.5,220C 37.0352,205.87 20.8685,191.37 5,176.5C -3.56586,161.73 -0.399192,150.397 14.5,142.5 Z"/></g>
<g><path style="opacity:0.959" fill="#000000" d="M 484.5,142.5 C 506.208,142.37 514.041,152.703 508,173.5C 491.819,189.68 474.986,205.18 457.5,220C 447.465,225.404 438.298,224.237 430,216.5C 424.417,208.073 424.084,199.407 429,190.5C 444.833,176 460.667,161.5 476.5,147C 479.099,145.205 481.766,143.705 484.5,142.5 Z"/></g>
<g><path style="opacity:0.969" fill="#000000" d="M 511.5,368.5 C 511.5,372.833 511.5,377.167 511.5,381.5C 503.679,395.304 492.679,398.471 478.5,391C 455.085,348.242 423.751,312.242 384.5,283C 309.282,229.871 230.948,224.871 149.5,268C 112.03,289.464 80.8633,317.964 56,353.5C 48.1667,366 40.3333,378.5 32.5,391C 18.3208,398.471 7.32083,395.304 -0.5,381.5C -0.5,377.167 -0.5,372.833 -0.5,368.5C 39.4024,291.203 100.402,238.036 182.5,209C 257.306,187.734 327.639,197.734 393.5,239C 443.912,272.238 483.246,315.404 511.5,368.5 Z"/></g>
<g><path style="opacity:0.972" fill="#000000" d="M 248.5,275.5 C 298.614,275.476 332.447,298.81 350,345.5C 361.478,393.08 347.311,430.913 307.5,459C 267.987,480.258 229.987,477.925 193.5,452C 161.119,423.184 150.286,387.684 161,345.5C 176.06,304.403 205.226,281.07 248.5,275.5 Z M 249.5,316.5 C 285.369,316.67 306.536,334.337 313,369.5C 312.909,403.844 296.076,424.677 262.5,432C 226.219,432.614 204.719,415.114 198,379.5C 198.165,344.509 215.332,323.509 249.5,316.5 Z"/></g>
</svg>
