<?xml version="1.0" encoding="UTF-8"?>
<!DOCTYPE svg PUBLIC "-//W3C//DTD SVG 1.1//EN" "http://www.w3.org/Graphics/SVG/1.1/DTD/svg11.dtd">
<svg xmlns="http://www.w3.org/2000/svg" version="1.1" width="512px" height="512px" style="shape-rendering:geometricPrecision; text-rendering:geometricPrecision; image-rendering:optimizeQuality; fill-rule:evenodd; clip-rule:evenodd" xmlns:xlink="http://www.w3.org/1999/xlink">
<g><path style="opacity:0.962" fill="#000000" d="M 33.5,137.5 C 37.7018,137.384 41.7018,138.217 45.5,140C 122.861,227.559 218.527,257.225 332.5,229C 385.407,212.084 429.74,182.417 465.5,140C 476.365,135.254 484.532,138.087 490,148.5C 491.041,153.44 490.374,158.106 488,162.5C 475.167,178 461,192.167 445.5,205C 460.972,233.442 475.805,262.275 490,291.5C 491.05,307.118 483.883,313.618 468.5,311C 465.438,309.939 462.938,308.106 461,305.5C 447,278.167 433,250.833 419,223.5C 390.246,242.423 359.079,255.923 325.5,264C 332.404,295.019 338.737,326.186 344.5,357.5C 341.666,371.92 333.333,376.42 319.5,371C 316.567,368.736 314.4,365.902 313,362.5C 306.51,331.548 300.343,300.548 294.5,269.5C 281.51,270.291 268.51,270.958 255.5,271.5C 242.49,270.958 229.49,270.291 216.5,269.5C 210.657,300.548 204.49,331.548 198,362.5C 192.521,372.915 184.354,375.748 173.5,371C 168.908,367.648 166.574,363.148 166.5,357.5C 172.263,326.186 178.596,295.019 185.5,264C 157.626,257.321 131.293,246.821 106.5,232.5C 86.7214,258.119 66.7214,283.619 46.5,309C 37.7807,314.031 29.9474,312.865 23,305.5C 19.7348,299.472 19.7348,293.472 23,287.5C 41.3788,263.243 59.8788,239.077 78.5,215C 58.3834,199.217 39.8834,181.717 23,162.5C 17.7472,150.351 21.2472,142.017 33.5,137.5 Z"/></g>
</svg>
