<?xml version="1.0" encoding="UTF-8"?>
<!DOCTYPE svg PUBLIC "-//W3C//DTD SVG 1.1//EN" "http://www.w3.org/Graphics/SVG/1.1/DTD/svg11.dtd">
<svg xmlns="http://www.w3.org/2000/svg" version="1.1" width="512px" height="512px" style="shape-rendering:geometricPrecision; text-rendering:geometricPrecision; image-rendering:optimizeQuality; fill-rule:evenodd; clip-rule:evenodd" xmlns:xlink="http://www.w3.org/1999/xlink">
<g><path style="opacity:0.936" fill="#000000" d="M 163.5,23.5 C 233.754,19.3759 286.587,47.3759 322,107.5C 332.212,127.637 338.046,148.97 339.5,171.5C 400.605,177.141 445.105,207.141 473,261.5C 489.252,298.851 491.919,337.184 481,376.5C 478.126,384.956 474.96,393.289 471.5,401.5C 477.158,426.465 482.658,451.465 488,476.5C 488.601,486.215 484.101,489.715 474.5,487C 450.153,481.897 425.819,476.731 401.5,471.5C 339.835,498.7 282.169,492.2 228.5,452C 194.277,422.389 175.277,384.889 171.5,339.5C 150.128,338.074 129.795,332.74 110.5,323.5C 84.5708,329.219 58.5708,334.552 32.5,339.5C 25.8333,340.167 22.8333,337.167 23.5,330.5C 28.3558,304.742 33.6891,279.076 39.5,253.5C 12.3002,191.83 18.8002,134.163 59,80.5C 86.7518,48.5404 121.585,29.5404 163.5,23.5 Z M 180.5,39.5 C 232.925,41.286 273.425,63.9526 302,107.5C 323.889,144.731 328.556,184.064 316,225.5C 292.172,286.807 247.339,319.474 181.5,323.5C 157.034,322.592 133.867,316.592 112,305.5C 88.76,310.914 65.5933,315.581 42.5,319.5C 47.5624,296.689 52.5624,273.856 57.5,251C 36.9522,209.63 35.1188,167.464 52,124.5C 78.5019,71.5013 121.335,43.1679 180.5,39.5 Z M 249.5,325.5 C 249.336,328.187 249.503,330.854 250,333.5C 250.5,335.333 251.667,336.5 253.5,337C 304.167,337.667 354.833,337.667 405.5,337C 406.416,336.626 407.25,336.126 408,335.5C 409.483,332.298 409.817,328.964 409,325.5C 408.5,323.667 407.333,322.5 405.5,322C 355.833,321.667 306.167,321.333 256.5,321C 277.569,309.599 295.235,294.265 309.5,275C 341.167,274.667 372.833,274.333 404.5,274C 406.286,273.215 407.786,272.049 409,270.5C 409.667,267.5 409.667,264.5 409,261.5C 407.786,259.951 406.286,258.785 404.5,258C 376.5,257.667 348.5,257.333 320.5,257C 332.667,235.836 339.001,213.002 339.5,188.5C 393.928,194.452 433.428,221.786 458,270.5C 475.927,313.988 474.427,356.821 453.5,399C 458.914,422.24 463.581,445.407 467.5,468.5C 444.692,463.423 421.859,458.423 399,453.5C 344.331,480.145 292.164,475.978 242.5,441C 210.197,414.899 192.197,381.066 188.5,339.5C 209.764,338.767 230.097,334.1 249.5,325.5 Z"/></g>
<g><path style="opacity:0.925" fill="#000000" d="M 165.5,104.5 C 190.457,102.885 208.29,113.218 219,135.5C 226.811,158.047 221.644,176.88 203.5,192C 196.074,196.462 188.908,201.295 182,206.5C 181.971,211.353 181.138,216.02 179.5,220.5C 173.86,224.975 169.027,224.309 165,218.5C 161.805,206.767 164.971,197.267 174.5,190C 181.002,186.25 187.335,182.25 193.5,178C 207.253,165.071 209.086,150.571 199,134.5C 186.165,120.304 171.332,117.804 154.5,127C 144.986,134.527 140.153,144.361 140,156.5C 137.006,162.365 132.506,163.865 126.5,161C 124.059,158.347 123.059,155.18 123.5,151.5C 126.302,125.704 140.302,110.037 165.5,104.5 Z"/></g>
<g><path style="opacity:0.881" fill="#000000" d="M 168.5,234.5 C 178.105,232.939 182.271,236.939 181,246.5C 180.215,248.286 179.049,249.786 177.5,251C 169.715,253.448 165.048,250.781 163.5,243C 164.05,239.385 165.716,236.552 168.5,234.5 Z"/></g>
<g><path style="opacity:0.936" fill="#000000" d="M 255.5,384.5 C 304.834,384.333 354.168,384.5 403.5,385C 407.802,385.965 409.802,388.632 409.5,393C 409.961,396.545 408.628,399.212 405.5,401C 354.833,401.667 304.167,401.667 253.5,401C 249.673,397.692 248.506,393.526 250,388.5C 251.5,386.531 253.333,385.198 255.5,384.5 Z"/></g>
</svg>
