<?xml version="1.0" encoding="UTF-8"?>
<!DOCTYPE svg PUBLIC "-//W3C//DTD SVG 1.1//EN" "http://www.w3.org/Graphics/SVG/1.1/DTD/svg11.dtd">
<svg xmlns="http://www.w3.org/2000/svg" version="1.1" width="32px" height="32px" style="shape-rendering:geometricPrecision; text-rendering:geometricPrecision; image-rendering:optimizeQuality; fill-rule:evenodd; clip-rule:evenodd" xmlns:xlink="http://www.w3.org/1999/xlink">
<g><path style="opacity:0.832" fill="#000000" d="M -0.5,23.5 C -0.5,22.1667 -0.5,20.8333 -0.5,19.5C 1.91993,17.0801 4.91993,15.9134 8.5,16C 3.35814,12.9585 2.69147,9.29182 6.5,5C 14,3.16667 16.8333,6 15,13.5C 14.0975,14.7014 12.9308,15.5348 11.5,16C 16.1118,15.4043 19.1118,17.2376 20.5,21.5C 19.9615,24.2033 18.2948,25.7033 15.5,26C 9.7527,27.1655 4.41936,26.3322 -0.5,23.5 Z"/></g>
<g><path style="opacity:0.578" fill="#000000" d="M 31.5,7.5 C 31.5,8.5 31.5,9.5 31.5,10.5C 28.1667,10.5 24.8333,10.5 21.5,10.5C 21.5,9.5 21.5,8.5 21.5,7.5C 24.8333,7.5 28.1667,7.5 31.5,7.5 Z"/></g>
<g><path style="opacity:0.849" fill="#000000" d="M 31.5,14.5 C 31.5,15.1667 31.5,15.8333 31.5,16.5C 19.5,15.8333 19.5,15.1667 31.5,14.5 Z"/></g>
<g><path style="opacity:0.524" fill="#000000" d="M 31.5,20.5 C 31.5,21.5 31.5,22.5 31.5,23.5C 29.076,23.8076 26.7427,23.4742 24.5,22.5C 24.7093,21.914 25.0426,21.414 25.5,21C 27.4727,20.5045 29.4727,20.3379 31.5,20.5 Z"/></g>
</svg>
