<?xml version="1.0" encoding="UTF-8"?>
<!DOCTYPE svg PUBLIC "-//W3C//DTD SVG 1.1//EN" "http://www.w3.org/Graphics/SVG/1.1/DTD/svg11.dtd">
<svg xmlns="http://www.w3.org/2000/svg" version="1.1" width="512px" height="512px" style="shape-rendering:geometricPrecision; text-rendering:geometricPrecision; image-rendering:optimizeQuality; fill-rule:evenodd; clip-rule:evenodd" xmlns:xlink="http://www.w3.org/1999/xlink">
<g><path style="opacity:0.976" fill="#000000" d="M 240.5,-0.5 C 251.167,-0.5 261.833,-0.5 272.5,-0.5C 340.154,11.6544 379.988,51.6544 392,119.5C 396.15,186.067 368.317,233.567 308.5,262C 284.568,270.362 259.902,274.029 234.5,273C 152.113,284.41 92.6134,327.243 56,401.5C 48.8373,417.154 44.004,433.487 41.5,450.5C 41.1771,458.02 44.1771,463.854 50.5,468C 53.9567,469.743 57.6233,470.743 61.5,471C 130.833,471.333 200.167,471.667 269.5,472C 282.704,478.682 286.204,488.849 280,502.5C 277.16,506.327 273.66,509.327 269.5,511.5C 196.167,511.5 122.833,511.5 49.5,511.5C 13.7175,500.984 -2.44921,476.984 1,439.5C 23.4544,343.433 80.9544,278.266 173.5,244C 133.825,211.688 116.325,169.855 121,118.5C 133.47,51.1959 173.304,11.5292 240.5,-0.5 Z M 255.5,39.5 C 297.559,41.4348 327.392,61.4348 345,99.5C 359.411,142.025 350.244,178.525 317.5,209C 287.988,231.64 255.655,236.64 220.5,224C 177.899,203.647 158.399,169.814 162,122.5C 170.3,79.8662 195.467,53.0329 237.5,42C 243.634,41.0882 249.634,40.2549 255.5,39.5 Z"/></g>
<g><path style="opacity:0.991" fill="#000000" d="M 511.5,322.5 C 511.5,328.5 511.5,334.5 511.5,340.5C 508.956,345.537 504.956,349.037 499.5,351C 444.833,351.667 390.167,351.667 335.5,351C 322.296,344.318 318.796,334.151 325,320.5C 327.596,316.61 331.096,313.777 335.5,312C 390.167,311.333 444.833,311.333 499.5,312C 504.956,313.963 508.956,317.463 511.5,322.5 Z"/></g>
<g><path style="opacity:0.991" fill="#000000" d="M 511.5,402.5 C 511.5,408.5 511.5,414.5 511.5,420.5C 508.956,425.537 504.956,429.037 499.5,431C 444.833,431.667 390.167,431.667 335.5,431C 322.296,424.318 318.796,414.151 325,400.5C 327.596,396.61 331.096,393.777 335.5,392C 390.167,391.333 444.833,391.333 499.5,392C 504.956,393.963 508.956,397.463 511.5,402.5 Z"/></g>
<g><path style="opacity:0.991" fill="#000000" d="M 511.5,482.5 C 511.5,488.5 511.5,494.5 511.5,500.5C 509.732,502.508 508.066,504.674 506.5,507C 504.102,508.524 501.769,510.024 499.5,511.5C 444.833,511.5 390.167,511.5 335.5,511.5C 322.401,504.6 318.901,494.267 325,480.5C 327.596,476.61 331.096,473.777 335.5,472C 390.167,471.333 444.833,471.333 499.5,472C 504.956,473.963 508.956,477.463 511.5,482.5 Z"/></g>
</svg>
