<?xml version="1.0" encoding="UTF-8"?>
<!DOCTYPE svg PUBLIC "-//W3C//DTD SVG 1.1//EN" "http://www.w3.org/Graphics/SVG/1.1/DTD/svg11.dtd">
<svg xmlns="http://www.w3.org/2000/svg" version="1.1" width="512px" height="512px" style="shape-rendering:geometricPrecision; text-rendering:geometricPrecision; image-rendering:optimizeQuality; fill-rule:evenodd; clip-rule:evenodd" xmlns:xlink="http://www.w3.org/1999/xlink">
<g><path style="opacity:0.987" fill="#2b3244" d="M 230.5,31.5 C 276.997,28.8162 322.664,33.6495 367.5,46C 373.906,52.2878 379.739,59.1212 385,66.5C 403.644,85.4129 425.811,98.5795 451.5,106C 453.956,108.408 455.789,111.241 457,114.5C 459.018,164.43 456.352,214.097 449,263.5C 441.429,316.274 421.096,363.274 388,404.5C 352.159,443.847 307.992,468.847 255.5,479.5C 159.367,457.201 97.8666,398.534 71,303.5C 62.1279,270.062 56.7945,236.062 55,201.5C 53.5592,172.513 53.2258,143.513 54,114.5C 55.198,111.274 57.0314,108.441 59.5,106C 93.5284,96.2794 120.528,76.946 140.5,48C 156.018,42.2279 172.018,38.2279 188.5,36C 202.595,33.9332 216.595,32.4332 230.5,31.5 Z M 238.5,64.5 C 276.04,63.0639 313.04,66.7306 349.5,75.5C 368.751,101.547 393.584,120.214 424,131.5C 426.567,185.567 421.567,238.9 409,291.5C 387.637,372.696 336.471,424.029 255.5,445.5C 183.544,427.114 134.711,383.114 109,313.5C 94.6897,269.665 87.3563,224.665 87,178.5C 86.176,162.592 86.3427,146.759 87.5,131C 117.759,119.902 142.426,101.402 161.5,75.5C 186.917,69.1246 212.583,65.4579 238.5,64.5 Z"/></g>
<g><path style="opacity:0.986" fill="#2b3243" d="M 308.5,181.5 C 325.639,180.801 332.472,188.801 329,205.5C 303.667,239.5 278.333,273.5 253,307.5C 246.833,314.535 239.333,316.369 230.5,313C 228.391,311.859 226.558,310.359 225,308.5C 211.381,290.546 197.381,272.879 183,255.5C 177.475,244.12 180.309,235.62 191.5,230C 199.378,228.182 205.878,230.348 211,236.5C 219.628,248.292 228.795,259.626 238.5,270.5C 259.243,243.346 279.743,216.012 300,188.5C 302.441,185.546 305.275,183.213 308.5,181.5 Z"/></g>
</svg>
