<?xml version="1.0" encoding="UTF-8"?>
<!DOCTYPE svg PUBLIC "-//W3C//DTD SVG 1.1//EN" "http://www.w3.org/Graphics/SVG/1.1/DTD/svg11.dtd">
<svg xmlns="http://www.w3.org/2000/svg" version="1.1" width="512px" height="512px" style="shape-rendering:geometricPrecision; text-rendering:geometricPrecision; image-rendering:optimizeQuality; fill-rule:evenodd; clip-rule:evenodd" xmlns:xlink="http://www.w3.org/1999/xlink">
<g><path style="opacity:0.964" fill="#000000" d="M 236.5,25.5 C 291.449,24.871 330.615,49.2043 354,98.5C 370.62,145.057 362.953,187.057 331,224.5C 294.473,259.588 251.973,269.422 203.5,254C 160.496,236.323 135.329,204.49 128,158.5C 123.733,108.206 142.566,69.3723 184.5,42C 200.786,32.7359 218.119,27.2359 236.5,25.5 Z M 237.5,58.5 C 277.127,57.8829 305.627,75.2162 323,110.5C 337.035,151.71 327.202,185.877 293.5,213C 257.105,235.218 222.105,233.218 188.5,207C 159.79,178.451 152.956,145.284 168,107.5C 182.769,79.2278 205.935,62.8944 237.5,58.5 Z"/></g>
<g><path style="opacity:0.965" fill="#000000" d="M 354.5,248.5 C 371.424,246.043 383.59,252.376 391,267.5C 395.866,283.266 401.033,298.933 406.5,314.5C 425.158,315.333 443.824,315.833 462.5,316C 483.305,324.45 489.805,339.284 482,360.5C 480.667,362.5 479.333,364.5 478,366.5C 463.949,377.552 449.615,388.219 435,398.5C 438.288,413.376 442.622,428.043 448,442.5C 453.578,462.131 447.078,475.964 428.5,484C 420.273,486.272 412.273,485.605 404.5,482C 390.36,472.027 376.36,461.86 362.5,451.5C 347.638,462.195 332.638,472.695 317.5,483C 296.459,489.113 282.293,481.946 275,461.5C 274.333,456.833 274.333,452.167 275,447.5C 280.068,431.464 285.234,415.464 290.5,399.5C 278.01,390.088 265.344,380.922 252.5,372C 238.459,359.772 235.625,345.272 244,328.5C 248.553,321.947 254.72,317.781 262.5,316C 280.833,315.667 299.167,315.333 317.5,315C 323.06,299.653 328.227,284.153 333,268.5C 337.196,258.465 344.363,251.798 354.5,248.5 Z M 361.5,286.5 C 367.594,303.279 373.428,320.279 379,337.5C 381.451,343.616 385.951,347.116 392.5,348C 410.5,348.333 428.5,348.667 446.5,349C 432.167,359.333 417.833,369.667 403.5,380C 399.078,384.267 397.245,389.434 398,395.5C 402.998,412.66 408.498,429.66 414.5,446.5C 414.167,446.833 413.833,447.167 413.5,447.5C 399.64,437.14 385.64,426.973 371.5,417C 365.194,413.728 358.861,413.728 352.5,417C 338.244,427.378 324.078,437.878 310,448.5C 315.097,431.538 320.43,414.538 326,397.5C 327.604,389.978 325.437,383.811 319.5,379C 305.5,369 291.5,359 277.5,349C 295.5,348.667 313.5,348.333 331.5,348C 337.687,347.162 342.187,343.996 345,338.5C 351.011,321.302 356.511,303.968 361.5,286.5 Z"/></g>
<g><path style="opacity:0.965" fill="#000000" d="M 230.5,278.5 C 236.509,278.334 242.509,278.501 248.5,279C 259.65,283.134 263.483,290.967 260,302.5C 257.685,306.817 254.185,309.65 249.5,311C 202.682,310.564 157.682,319.231 114.5,337C 97.3083,345.011 82.1417,355.845 69,369.5C 63.7559,376.323 60.4225,383.99 59,392.5C 58.3333,404.5 58.3333,416.5 59,428.5C 59.5,429.667 60.3333,430.5 61.5,431C 124.167,431.333 186.833,431.667 249.5,432C 258.351,435.522 262.184,442.022 261,451.5C 259.348,458.743 254.848,462.909 247.5,464C 184.167,464.667 120.833,464.667 57.5,464C 39.6394,460.806 29.1394,450.306 26,432.5C 18.0551,392.334 29.2218,358.834 59.5,332C 85.2373,312.467 113.904,298.8 145.5,291C 173.575,284.061 201.908,279.895 230.5,278.5 Z"/></g>
</svg>
