<?xml version="1.0" encoding="UTF-8"?>
<!DOCTYPE svg PUBLIC "-//W3C//DTD SVG 1.1//EN" "http://www.w3.org/Graphics/SVG/1.1/DTD/svg11.dtd">
<svg xmlns="http://www.w3.org/2000/svg" version="1.1" width="32px" height="32px" style="shape-rendering:geometricPrecision; text-rendering:geometricPrecision; image-rendering:optimizeQuality; fill-rule:evenodd; clip-rule:evenodd" xmlns:xlink="http://www.w3.org/1999/xlink">
<g><path style="opacity:0.826" fill="#000000" d="M 7.5,-0.5 C 10.1667,-0.5 12.8333,-0.5 15.5,-0.5C 16.1217,0.626561 16.955,1.62656 18,2.5C 18.0368,6.08888 18.8701,9.42222 20.5,12.5C 17.6959,13.7335 15.5293,15.7335 14,18.5C 13.9767,21.7681 14.1433,25.1015 14.5,28.5C 9.38632,29.7091 4.38632,29.3758 -0.5,27.5C -0.5,22.5 -0.5,17.5 -0.5,12.5C 1.11723,11.962 2.7839,11.6287 4.5,11.5C 3.76879,6.92748 4.76879,2.92748 7.5,-0.5 Z M 9.5,2.5 C 11.7224,2.17798 13.5557,2.84464 15,4.5C 15.4966,6.80982 15.6633,9.14316 15.5,11.5C 12.8333,11.5 10.1667,11.5 7.5,11.5C 7.06525,8.16248 7.73192,5.16248 9.5,2.5 Z"/></g>
<g><path style="opacity:0.782" fill="#000000" d="M 31.5,17.5 C 31.5,19.1667 31.5,20.8333 31.5,22.5C 30.1667,22.8333 30.1667,23.1667 31.5,23.5C 31.5,25.1667 31.5,26.8333 31.5,28.5C 29.9902,29.7279 28.4902,29.7279 27,28.5C 26.5172,29.448 26.3505,30.448 26.5,31.5C 24.5,31.5 22.5,31.5 20.5,31.5C 20.6495,30.448 20.4828,29.448 20,28.5C 18.6667,29.8333 17.3333,29.8333 16,28.5C 16.6667,24.8333 16.6667,21.1667 16,17.5C 18.7732,16.5321 21.2732,15.1988 23.5,13.5C 25.8485,15.341 28.5152,16.6743 31.5,17.5 Z M 21.5,20.5 C 22.8734,20.3433 24.2068,20.51 25.5,21C 26.474,23.702 25.474,25.0354 22.5,25C 20.4523,23.7741 20.119,22.2741 21.5,20.5 Z"/></g>
</svg>
