<?xml version="1.0" encoding="UTF-8"?>
<!DOCTYPE svg PUBLIC "-//W3C//DTD SVG 1.1//EN" "http://www.w3.org/Graphics/SVG/1.1/DTD/svg11.dtd">
<svg xmlns="http://www.w3.org/2000/svg" version="1.1" width="512px" height="512px" style="shape-rendering:geometricPrecision; text-rendering:geometricPrecision; image-rendering:optimizeQuality; fill-rule:evenodd; clip-rule:evenodd" xmlns:xlink="http://www.w3.org/1999/xlink">
<g><path style="opacity:0.976" fill="#000000" d="M 241.5,31.5 C 288.571,27.776 322.738,46.776 344,88.5C 346.602,94.6387 348.602,100.972 350,107.5C 351.57,123.46 351.904,139.46 351,155.5C 350.5,157.333 349.333,158.5 347.5,159C 343.756,159.929 340.256,159.429 337,157.5C 335.763,143.576 334.763,129.576 334,115.5C 326.5,78.6667 304.333,56.5 267.5,49C 225.251,45.5372 196.084,63.3705 180,102.5C 177.504,110.648 176.17,118.981 176,127.5C 175.5,159.498 175.333,191.498 175.5,223.5C 250.501,223.333 325.501,223.5 400.5,224C 415.061,227.56 424.894,236.394 430,250.5C 431.653,316.456 431.986,382.456 431,448.5C 426.833,464.667 416.667,474.833 400.5,479C 303.833,479.667 207.167,479.667 110.5,479C 94.3333,474.833 84.1667,464.667 80,448.5C 79.3333,383.833 79.3333,319.167 80,254.5C 83.5604,239.939 92.3937,230.106 106.5,225C 124.111,223.555 141.777,223.055 159.5,223.5C 159.333,186.832 159.5,150.165 160,113.5C 169.347,68.3203 196.513,40.9869 241.5,31.5 Z M 119.5,239.5 C 210.167,239.333 300.834,239.5 391.5,240C 405.65,241.483 413.483,249.317 415,263.5C 415.667,322.167 415.667,380.833 415,439.5C 413.167,453.333 405.333,461.167 391.5,463C 300.833,463.667 210.167,463.667 119.5,463C 105.333,461.5 97.5,453.667 96,439.5C 95.3333,380.833 95.3333,322.167 96,263.5C 97.6947,249.307 105.528,241.307 119.5,239.5 Z M 249.5,271.5 C 253.514,271.334 257.514,271.501 261.5,272C 262,272.5 262.5,273 263,273.5C 264.073,280.61 265.573,287.61 267.5,294.5C 276.424,298.296 284.757,303.129 292.5,309C 295.5,309.667 298.5,309.667 301.5,309C 306.609,306.695 311.776,304.529 317,302.5C 320.39,306.065 323.223,310.065 325.5,314.5C 320.515,318.985 315.681,323.651 311,328.5C 310.042,330.199 309.542,332.033 309.5,334C 310.848,339.754 311.514,345.587 311.5,351.5C 310.923,358.529 310.423,365.529 310,372.5C 314.946,377.446 319.946,382.446 325,387.5C 323.42,391.476 321.253,395.309 318.5,399C 317.167,399.667 315.833,399.667 314.5,399C 308.019,394.911 301.019,392.911 293.5,393C 286.395,398.888 278.395,403.221 269.5,406C 267.683,407.8 266.516,409.966 266,412.5C 265.108,418.186 264.108,423.853 263,429.5C 258,430.833 253,430.833 248,429.5C 247,423.833 246,418.167 245,412.5C 244.484,409.966 243.317,407.8 241.5,406C 232.605,403.221 224.605,398.888 217.5,393C 209.051,393.294 201.218,395.794 194,400.5C 190.796,396.593 187.962,392.426 185.5,388C 190.032,383.133 194.866,378.633 200,374.5C 200.958,372.801 201.458,370.967 201.5,369C 200.136,363.08 199.469,357.08 199.5,351C 199.935,344.121 200.435,337.287 201,330.5C 196.667,324.833 191.667,319.833 186,315.5C 187.349,310.489 190.016,306.156 194,302.5C 199.224,304.529 204.391,306.695 209.5,309C 212.5,309.667 215.5,309.667 218.5,309C 224.936,303.447 232.269,299.447 240.5,297C 241.667,295.833 242.833,294.667 244,293.5C 245.309,285.925 247.143,278.592 249.5,271.5 Z M 249.5,330.5 C 265.272,328.95 274.272,335.95 276.5,351.5C 275.175,364.158 268.175,371.158 255.5,372.5C 240.783,370.073 233.95,361.406 235,346.5C 237.6,339.07 242.433,333.737 249.5,330.5 Z"/></g>
<g><path style="opacity:0.932" fill="#000000" d="M 242.5,255.5 C 251.173,255.334 259.84,255.5 268.5,256C 273.333,258.167 276.833,261.667 279,266.5C 280.024,272.171 281.524,277.671 283.5,283C 288.825,285.327 293.825,288.16 298.5,291.5C 306.251,286.857 314.584,285.024 323.5,286C 326.249,287.123 328.749,288.623 331,290.5C 335.182,296.199 338.848,302.199 342,308.5C 342.81,313.257 342.476,317.924 341,322.5C 336.685,327.649 332.185,332.649 327.5,337.5C 330.069,346.646 330.069,355.813 327.5,365C 332.045,370.206 336.545,375.372 341,380.5C 343,385.833 343,391.167 341,396.5C 338,401.167 335,405.833 332,410.5C 327.007,415.958 320.84,418.125 313.5,417C 308.495,415.163 303.495,413.33 298.5,411.5C 293.362,414.571 288.029,417.404 282.5,420C 281.376,426.237 279.876,432.403 278,438.5C 274.955,442.942 270.789,445.776 265.5,447C 258.833,447.667 252.167,447.667 245.5,447C 239.207,445.774 234.707,442.274 232,436.5C 230.79,430.78 229.457,425.113 228,419.5C 223.129,417.648 218.629,415.148 214.5,412C 212.833,411.333 211.167,411.333 209.5,412C 200.831,418.243 191.831,418.91 182.5,414C 176.869,407.904 172.369,401.071 169,393.5C 168.209,389.074 168.543,384.741 170,380.5C 174.66,375.337 179.16,370.003 183.5,364.5C 182.167,355.833 182.167,347.167 183.5,338.5C 179.219,333.047 174.719,327.713 170,322.5C 167.815,316.355 168.148,310.355 171,304.5C 173.583,301.003 175.916,297.336 178,293.5C 183.071,287.255 189.571,284.755 197.5,286C 202.388,287.694 207.222,289.528 212,291.5C 217.406,288.547 222.906,285.713 228.5,283C 229.322,275.912 231.155,269.079 234,262.5C 236.441,259.546 239.275,257.213 242.5,255.5 Z M 249.5,271.5 C 247.143,278.592 245.309,285.925 244,293.5C 242.833,294.667 241.667,295.833 240.5,297C 232.269,299.447 224.936,303.447 218.5,309C 215.5,309.667 212.5,309.667 209.5,309C 204.391,306.695 199.224,304.529 194,302.5C 190.016,306.156 187.349,310.489 186,315.5C 191.667,319.833 196.667,324.833 201,330.5C 200.435,337.287 199.935,344.121 199.5,351C 199.469,357.08 200.136,363.08 201.5,369C 201.458,370.967 200.958,372.801 200,374.5C 194.866,378.633 190.032,383.133 185.5,388C 187.962,392.426 190.796,396.593 194,400.5C 201.218,395.794 209.051,393.294 217.5,393C 224.605,398.888 232.605,403.221 241.5,406C 243.317,407.8 244.484,409.966 245,412.5C 246,418.167 247,423.833 248,429.5C 253,430.833 258,430.833 263,429.5C 264.108,423.853 265.108,418.186 266,412.5C 266.516,409.966 267.683,407.8 269.5,406C 278.395,403.221 286.395,398.888 293.5,393C 301.019,392.911 308.019,394.911 314.5,399C 315.833,399.667 317.167,399.667 318.5,399C 321.253,395.309 323.42,391.476 325,387.5C 319.946,382.446 314.946,377.446 310,372.5C 310.423,365.529 310.923,358.529 311.5,351.5C 311.514,345.587 310.848,339.754 309.5,334C 309.542,332.033 310.042,330.199 311,328.5C 315.681,323.651 320.515,318.985 325.5,314.5C 323.223,310.065 320.39,306.065 317,302.5C 311.776,304.529 306.609,306.695 301.5,309C 298.5,309.667 295.5,309.667 292.5,309C 284.757,303.129 276.424,298.296 267.5,294.5C 265.573,287.61 264.073,280.61 263,273.5C 262.5,273 262,272.5 261.5,272C 257.514,271.501 253.514,271.334 249.5,271.5 Z M 249.5,330.5 C 242.433,333.737 237.6,339.07 235,346.5C 233.95,361.406 240.783,370.073 255.5,372.5C 268.175,371.158 275.175,364.158 276.5,351.5C 274.272,335.95 265.272,328.95 249.5,330.5 Z"/></g>
<g><path style="opacity:0.929" fill="#000000" d="M 247.5,313.5 C 278.314,312.149 293.481,326.816 293,357.5C 288.348,377.316 275.848,387.983 255.5,389.5C 228.992,386.16 216.492,371.16 218,344.5C 221.579,328.09 231.413,317.756 247.5,313.5 Z M 249.5,330.5 C 242.433,333.737 237.6,339.07 235,346.5C 233.95,361.406 240.783,370.073 255.5,372.5C 268.175,371.158 275.175,364.158 276.5,351.5C 274.272,335.95 265.272,328.95 249.5,330.5 Z"/></g>
</svg>
