<?xml version="1.0" encoding="UTF-8"?>
<!DOCTYPE svg PUBLIC "-//W3C//DTD SVG 1.1//EN" "http://www.w3.org/Graphics/SVG/1.1/DTD/svg11.dtd">
<svg xmlns="http://www.w3.org/2000/svg" version="1.1" width="512px" height="512px" style="shape-rendering:geometricPrecision; text-rendering:geometricPrecision; image-rendering:optimizeQuality; fill-rule:evenodd; clip-rule:evenodd" xmlns:xlink="http://www.w3.org/1999/xlink">
<g><path style="opacity:0.972" fill="#000000" d="M 384.5,36.5 C 388.804,37.1306 393.137,37.6306 397.5,38C 403.223,39.2193 406.223,42.7193 406.5,48.5C 406.239,52.4499 405.072,56.1166 403,59.5C 395.667,67.5 388.333,75.5 381,83.5C 363.028,100.471 345.362,117.804 328,135.5C 327.5,137 327,138.5 326.5,140C 336,171.833 345.5,203.667 355,235.5C 356.262,239.909 355.428,243.743 352.5,247C 348.286,249.274 343.953,251.274 339.5,253C 337.365,253.635 335.365,253.301 333.5,252C 318.384,231.603 303.884,210.77 290,189.5C 284.757,182.545 278.59,181.711 271.5,187C 241.477,206.515 209.81,223.181 176.5,237C 167.605,240.521 158.438,243.021 149,244.5C 147.564,244.441 146.231,244.108 145,243.5C 144.667,239.833 144.333,236.167 144,232.5C 142.878,230.376 141.378,228.543 139.5,227C 121.158,218.162 102.825,209.329 84.5,200.5C 88.9075,193.049 95.4075,189.049 104,188.5C 126.342,191.094 148.676,193.76 171,196.5C 173.253,196.369 175.419,195.869 177.5,195C 198.961,177.208 220.128,159.041 241,140.5C 241.456,139.256 240.956,138.423 239.5,138C 213.421,127.862 187.421,117.529 161.5,107C 158.903,104.683 158.07,101.85 159,98.5C 161.167,95.6667 163.333,92.8333 165.5,90C 167.513,88.7428 169.679,87.9095 172,87.5C 208.872,92.696 245.705,98.0293 282.5,103.5C 300.648,87.8527 318.648,72.0194 336.5,56C 350.436,44.1916 366.436,37.6916 384.5,36.5 Z"/></g>
<g><path style="opacity:0.891" fill="#000000" d="M 98.5,288.5 C 202.834,288.333 307.167,288.5 411.5,289C 413.333,289.5 414.5,290.667 415,292.5C 416.289,310.122 425.789,319.289 443.5,320C 444.701,320.903 445.535,322.069 446,323.5C 446.982,362.893 446.649,402.226 445,441.5C 426,443.167 415.667,453.5 414,472.5C 412.933,473.191 411.766,473.691 410.5,474C 306.11,474.993 201.777,474.66 97.5,473C 96.7325,463.131 92.7325,454.798 85.5,448C 79.3008,444.757 72.8008,442.59 66,441.5C 64.8505,421.395 64.3505,401.229 64.5,381C 64.6667,361.833 64.8333,342.667 65,323.5C 65.4652,322.069 66.2986,320.903 67.5,320C 85.2107,319.289 94.7107,310.122 96,292.5C 96.6622,291.016 97.4955,289.683 98.5,288.5 Z M 106.5,299.5 C 183.167,299.333 259.834,299.5 336.5,300C 340.118,304.652 343.785,304.652 347.5,300C 366.497,299.5 385.497,299.333 404.5,299.5C 407.59,315.925 417.257,326.259 433.5,330.5C 434.5,364.493 434.833,398.493 434.5,432.5C 417.5,435.5 407.5,445.5 404.5,462.5C 385.164,462.667 365.83,462.5 346.5,462C 343.167,458.667 339.833,458.667 336.5,462C 259.834,462.5 183.167,462.667 106.5,462.5C 103.5,445.5 93.5,435.5 76.5,432.5C 76.1668,398.493 76.5001,364.493 77.5,330.5C 93.743,326.259 103.41,315.925 106.5,299.5 Z"/></g>
<g><path style="opacity:0.861" fill="#000000" d="M 340.5,313.5 C 343.099,313.549 345.266,314.549 347,316.5C 347.667,320.833 347.667,325.167 347,329.5C 344.029,333.092 340.696,333.425 337,330.5C 336.333,325.833 336.333,321.167 337,316.5C 338.145,315.364 339.312,314.364 340.5,313.5 Z"/></g>
<g><path style="opacity:0.97" fill="#000000" d="M 142.5,319.5 C 144.857,319.337 147.19,319.503 149.5,320C 156.384,323.275 163.384,326.275 170.5,329C 173.102,329.883 175.269,331.383 177,333.5C 177.667,347.833 177.667,362.167 177,376.5C 167.086,382.371 156.586,387.038 145.5,390.5C 135.165,386.583 124.998,382.25 115,377.5C 114.333,362.5 114.333,347.5 115,332.5C 124.151,328.007 133.318,323.673 142.5,319.5 Z"/></g>
<g><path style="opacity:0.929" fill="#000000" d="M 196.5,319.5 C 224.169,319.333 251.835,319.5 279.5,320C 283.485,323.286 283.485,326.619 279.5,330C 252.167,330.667 224.833,330.667 197.5,330C 193.945,326.828 193.611,323.328 196.5,319.5 Z"/></g>
<g><path style="opacity:0.853" fill="#000000" d="M 370.5,335.5 C 383.504,335.333 396.504,335.5 409.5,336C 415.682,339.302 416.015,342.969 410.5,347C 396.833,347.667 383.167,347.667 369.5,347C 365.262,344.828 364.428,341.662 367,337.5C 368.302,336.915 369.469,336.249 370.5,335.5 Z"/></g>
<g><path style="opacity:0.875" fill="#000000" d="M 341.5,342.5 C 346.51,343.83 348.51,347.164 347.5,352.5C 347.766,360.752 344.266,363.085 337,359.5C 336.333,354.833 336.333,350.167 337,345.5C 338.409,344.219 339.909,343.219 341.5,342.5 Z"/></g>
<g><path style="opacity:0.934" fill="#000000" d="M 196.5,345.5 C 235.501,345.333 274.501,345.5 313.5,346C 317.5,349.333 317.5,352.667 313.5,356C 274.833,356.667 236.167,356.667 197.5,356C 193.945,352.828 193.611,349.328 196.5,345.5 Z"/></g>
<g><path style="opacity:0.91" fill="#000000" d="M 368.5,362.5 C 382.837,362.333 397.171,362.5 411.5,363C 415.5,366.333 415.5,369.667 411.5,373C 397.167,373.667 382.833,373.667 368.5,373C 364.55,369.551 364.55,366.051 368.5,362.5 Z"/></g>
<g><path style="opacity:0.875" fill="#000000" d="M 338.5,372.5 C 340.857,372.337 343.19,372.503 345.5,373C 347.51,377.609 348.01,382.442 347,387.5C 343.952,391.01 340.619,391.343 337,388.5C 335.946,382.886 336.446,377.552 338.5,372.5 Z"/></g>
<g><path style="opacity:0.852" fill="#000000" d="M 369.5,388.5 C 382.837,388.333 396.171,388.5 409.5,389C 415.682,392.302 416.015,395.969 410.5,400C 396.833,400.667 383.167,400.667 369.5,400C 365.262,397.828 364.428,394.662 367,390.5C 367.995,389.934 368.828,389.267 369.5,388.5 Z"/></g>
<g><path style="opacity:0.871" fill="#000000" d="M 338.5,401.5 C 340.857,401.337 343.19,401.503 345.5,402C 347.51,406.609 348.01,411.442 347,416.5C 343.996,420 340.663,420.333 337,417.5C 335.946,411.886 336.446,406.552 338.5,401.5 Z"/></g>
<g><path style="opacity:0.866" fill="#000000" d="M 122.5,405.5 C 126.846,405.334 131.179,405.501 135.5,406C 138.638,408.419 139.138,411.253 137,414.5C 131.94,416.958 126.773,417.125 121.5,415C 118.69,411.432 119.023,408.266 122.5,405.5 Z"/></g>
<g><path style="opacity:0.893" fill="#000000" d="M 151.5,405.5 C 158.841,405.334 166.174,405.5 173.5,406C 176.66,410.2 175.994,413.533 171.5,416C 165.167,416.667 158.833,416.667 152.5,416C 148.945,412.828 148.611,409.328 151.5,405.5 Z"/></g>
<g><path style="opacity:0.893" fill="#000000" d="M 188.5,405.5 C 195.841,405.334 203.174,405.5 210.5,406C 213.425,409.696 213.092,413.029 209.5,416C 202.833,416.667 196.167,416.667 189.5,416C 185.935,412.784 185.602,409.284 188.5,405.5 Z"/></g>
<g><path style="opacity:0.893" fill="#000000" d="M 225.5,405.5 C 232.841,405.334 240.174,405.5 247.5,406C 250.333,409.663 250,412.996 246.5,416C 240.167,416.667 233.833,416.667 227.5,416C 222.939,413.361 222.272,409.861 225.5,405.5 Z"/></g>
<g><path style="opacity:0.893" fill="#000000" d="M 263.5,405.5 C 270.508,405.334 277.508,405.5 284.5,406C 288.311,409.723 287.977,413.056 283.5,416C 277.167,416.667 270.833,416.667 264.5,416C 259.686,412.914 259.352,409.414 263.5,405.5 Z"/></g>
<g><path style="opacity:0.87" fill="#000000" d="M 300.5,405.5 C 305.179,405.334 309.845,405.501 314.5,406C 317.861,413.413 315.361,416.913 307,416.5C 298.379,416.681 296.212,413.014 300.5,405.5 Z"/></g>
<g><path style="opacity:0.912" fill="#000000" d="M 368.5,415.5 C 382.837,415.333 397.171,415.5 411.5,416C 415.5,419.333 415.5,422.667 411.5,426C 397.167,426.667 382.833,426.667 368.5,426C 364.565,422.504 364.565,419.004 368.5,415.5 Z"/></g>
<g><path style="opacity:0.875" fill="#000000" d="M 338.5,430.5 C 342.013,429.876 344.847,430.876 347,433.5C 347.667,437.5 347.667,441.5 347,445.5C 343.996,449 340.663,449.333 337,446.5C 335.946,440.886 336.446,435.552 338.5,430.5 Z"/></g>
<g><path style="opacity:0.861" fill="#000000" d="M 123.5,432.5 C 186.501,432.333 249.501,432.5 312.5,433C 317.833,436.667 317.833,440.333 312.5,444C 249.5,444.667 186.5,444.667 123.5,444C 118.248,440.173 118.248,436.34 123.5,432.5 Z"/></g>
</svg>
