<?xml version="1.0" standalone="no"?>
<!DOCTYPE svg PUBLIC "-//W3C//DTD SVG 20010904//EN"
 "http://www.w3.org/TR/2001/REC-SVG-20010904/DTD/svg10.dtd">
<svg version="1.0" xmlns="http://www.w3.org/2000/svg"
 width="512.000000pt" height="512.000000pt" viewBox="0 0 512.000000 512.000000"
 preserveAspectRatio="xMidYMid meet">
<metadata>
Created by potrace 1.16, written by Peter Selinger 2001-2019
</metadata>
<g transform="translate(0.000000,512.000000) scale(0.100000,-0.100000)"
fill="#000000" stroke="none">
<path d="M2448 4787 c-63 -24 -126 -66 -231 -154 -164 -137 -214 -162 -289
-143 -24 6 -132 54 -241 107 -177 86 -205 96 -266 101 -115 8 -184 -29 -227
-123 -43 -91 -25 -221 46 -337 85 -139 292 -340 460 -448 l50 -32 -44 -28
c-72 -46 -100 -91 -104 -170 -5 -81 17 -132 77 -181 l40 -31 -77 -58 c-86 -64
-244 -223 -314 -315 -260 -343 -444 -790 -509 -1234 -18 -122 -20 -176 -16
-340 4 -172 8 -208 31 -295 118 -436 422 -664 1002 -750 316 -47 1093 -50
1414 -6 604 85 916 312 1036 756 23 87 27 123 31 295 4 164 2 218 -16 340 -63
433 -240 869 -493 1211 -79 107 -232 264 -330 338 l-76 58 39 31 c60 49 82
100 77 181 -4 79 -32 124 -104 170 l-44 27 58 38 c170 113 372 311 452 445 73
123 90 243 46 335 -43 94 -112 131 -228 123 -63 -5 -89 -15 -266 -101 -108
-53 -216 -101 -240 -107 -76 -19 -124 5 -294 147 -59 50 -136 105 -170 124
-56 29 -73 33 -153 36 -59 2 -103 -1 -127 -10z m198 -179 c24 -12 81 -53 126
-92 171 -147 244 -189 347 -201 100 -11 168 9 366 111 99 50 198 97 220 103
36 10 42 9 58 -10 89 -108 -156 -403 -567 -682 l-68 -47 -568 0 -568 0 -68 47
c-412 279 -656 574 -566 682 15 19 21 20 57 10 22 -6 121 -53 220 -103 198
-102 266 -122 366 -111 71 8 175 57 246 117 29 23 83 68 120 99 123 103 191
121 279 77z m678 -1009 c33 -26 35 -73 4 -106 l-21 -23 -746 0 -745 0 -23 22
c-33 30 -31 80 3 107 26 21 33 21 764 21 731 0 738 0 764 -21z m-119 -334
c428 -223 797 -824 921 -1500 15 -77 19 -150 19 -320 0 -197 -2 -228 -22 -302
-104 -378 -376 -557 -952 -629 -273 -34 -949 -34 -1222 0 -499 62 -783 216
-904 490 -60 135 -70 201 -70 451 1 220 2 237 33 384 136 646 495 1212 907
1426 l66 35 579 0 579 0 66 -35z"/>
<path d="M1812 2450 c-22 -21 -22 -22 -22 -430 l0 -409 26 -20 c36 -28 95 -28
120 0 16 18 19 40 22 160 l4 139 140 0 c139 0 140 0 167 -28 23 -22 29 -39 35
-97 13 -126 67 -195 152 -195 45 0 56 6 73 37 16 30 5 66 -28 96 -23 20 -29
36 -35 88 -8 72 -33 135 -64 163 l-21 18 27 23 c16 13 41 47 57 77 26 46 30
63 29 128 -1 118 -54 204 -154 249 -41 19 -65 21 -276 21 -218 0 -231 -1 -252
-20z m447 -145 c55 -28 77 -118 46 -192 -31 -73 -31 -73 -197 -73 l-148 0 0
140 0 140 135 0 c100 0 144 -4 164 -15z"/>
<path d="M2912 2255 c-18 -8 -45 -24 -59 -35 -30 -24 -43 -25 -43 -6 0 42 -90
60 -131 27 l-24 -19 -3 -418 c-2 -288 1 -427 8 -445 18 -42 67 -59 113 -38 39
18 47 50 47 186 0 120 1 125 18 110 64 -58 214 -76 302 -36 119 54 190 179
190 334 0 157 -71 280 -194 336 -51 23 -175 25 -224 4z m156 -149 c139 -72
139 -310 0 -382 -38 -20 -117 -18 -158 5 -19 10 -48 40 -65 66 -26 42 -30 58
-30 119 0 87 29 145 90 182 46 28 120 32 163 10z"/>
</g>
</svg>
