<?xml version="1.0" encoding="UTF-8"?>
<!DOCTYPE svg PUBLIC "-//W3C//DTD SVG 1.1//EN" "http://www.w3.org/Graphics/SVG/1.1/DTD/svg11.dtd">
<svg xmlns="http://www.w3.org/2000/svg" version="1.1" width="512px" height="512px" style="shape-rendering:geometricPrecision; text-rendering:geometricPrecision; image-rendering:optimizeQuality; fill-rule:evenodd; clip-rule:evenodd" xmlns:xlink="http://www.w3.org/1999/xlink">
<g><path style="opacity:0.964" fill="#000000" d="M 72.5,39.5 C 173.167,39.3333 273.834,39.5 374.5,40C 382.667,42.8333 388.167,48.3333 391,56.5C 391.333,93.8333 391.667,131.167 392,168.5C 411.3,157.924 428.633,160.591 444,176.5C 455.939,196.795 453.439,215.129 436.5,231.5C 437.5,233.167 438.833,234.5 440.5,235.5C 443.081,232.752 446.081,230.586 449.5,229C 458.872,229.047 462.039,233.547 459,242.5C 436.667,264.833 414.333,287.167 392,309.5C 391.667,357.833 391.333,406.167 391,454.5C 388.167,462.667 382.667,468.167 374.5,471C 273.833,471.667 173.167,471.667 72.5,471C 64.3333,468.167 58.8333,462.667 56,454.5C 55.3333,321.833 55.3333,189.167 56,56.5C 59.0191,48.3156 64.5191,42.649 72.5,39.5 Z M 79.5,55.5 C 175.501,55.3333 271.501,55.5 367.5,56C 372,56.5 374.5,59 375,63.5C 375.667,103.833 375.667,144.167 375,184.5C 324,235.5 273,286.5 222,337.5C 217.618,355.075 213.618,372.742 210,390.5C 207.37,394.132 204.37,397.465 201,400.5C 197.524,408.033 199.857,412.699 208,414.5C 213.325,412.189 217.825,408.689 221.5,404C 239.977,400.172 258.311,395.839 276.5,391C 309.333,358.167 342.167,325.333 375,292.5C 375.667,295.5 375.667,298.5 375,301.5C 372,304.5 369,307.5 366,310.5C 360.772,320.776 363.939,325.776 375.5,325.5C 375.667,366.168 375.5,406.835 375,447.5C 374.594,450.494 373.094,452.661 370.5,454C 321.557,455.16 272.557,455.66 223.5,455.5C 175.5,455.333 127.5,455.167 79.5,455C 75,454.5 72.5,452 72,447.5C 71.3333,319.5 71.3333,191.5 72,63.5C 72.6804,58.9895 75.1804,56.3228 79.5,55.5 Z M 407.5,179.5 C 423.01,177.85 432.01,184.684 434.5,200C 433.94,204.015 432.773,207.848 431,211.5C 421.653,221.014 412.153,230.348 402.5,239.5C 392.681,230.181 383.014,220.681 373.5,211C 384.128,199.531 395.461,189.031 407.5,179.5 Z M 360.5,223.5 C 370.132,232.631 379.632,241.964 389,251.5C 389.667,252.167 389.667,252.833 389,253.5C 350.333,292.167 311.667,330.833 273,369.5C 263.667,360.167 254.333,350.833 245,341.5C 244.333,340.833 244.333,340.167 245,339.5C 283.701,300.965 322.201,262.299 360.5,223.5 Z M 423.5,243.5 C 425.296,244.793 426.963,246.293 428.5,248C 416.333,260.167 404.167,272.333 392,284.5C 391.333,281.5 391.333,278.5 392,275.5C 402.702,264.965 413.202,254.298 423.5,243.5 Z M 232.5,356.5 C 240.632,364.131 248.632,371.964 256.5,380C 246.709,382.739 236.875,385.239 227,387.5C 228.657,377.19 230.49,366.857 232.5,356.5 Z"/></g>
<g><path style="opacity:0.993" fill="#000000" d="M 115.5,103.5 C 187.501,103.333 259.501,103.5 331.5,104C 334.516,105.529 335.849,108.029 335.5,111.5C 335.849,114.971 334.516,117.471 331.5,119C 259.5,119.667 187.5,119.667 115.5,119C 112.484,117.471 111.151,114.971 111.5,111.5C 111.282,107.934 112.616,105.268 115.5,103.5 Z"/></g>
<g><path style="opacity:0.993" fill="#000000" d="M 115.5,143.5 C 187.501,143.333 259.501,143.5 331.5,144C 334.516,145.529 335.849,148.029 335.5,151.5C 335.849,154.971 334.516,157.471 331.5,159C 259.5,159.667 187.5,159.667 115.5,159C 112.484,157.471 111.151,154.971 111.5,151.5C 111.282,147.934 112.616,145.268 115.5,143.5 Z"/></g>
<g><path style="opacity:0.993" fill="#000000" d="M 115.5,183.5 C 187.501,183.333 259.501,183.5 331.5,184C 334.516,185.529 335.849,188.029 335.5,191.5C 335.849,194.971 334.516,197.471 331.5,199C 259.5,199.667 187.5,199.667 115.5,199C 112.484,197.471 111.151,194.971 111.5,191.5C 111.282,187.934 112.616,185.268 115.5,183.5 Z"/></g>
<g><path style="opacity:0.985" fill="#000000" d="M 115.5,223.5 C 147.502,223.333 179.502,223.5 211.5,224C 214.516,225.529 215.849,228.029 215.5,231.5C 215.849,234.971 214.516,237.471 211.5,239C 179.5,239.667 147.5,239.667 115.5,239C 112.484,237.471 111.151,234.971 111.5,231.5C 111.282,227.934 112.616,225.268 115.5,223.5 Z"/></g>
</svg>
